<mxfile host="app.diagrams.net" modified="2023-07-19T01:52:48.071Z" agent="Mozilla/5.0 (Macintosh; Intel Mac OS X 10.15; rv:109.0) Gecko/20100101 Firefox/115.0" etag="bvfhwLxa_6MFbyoiZ_oW" version="21.5.2" type="github">
  <diagram id="C5RBs43oDa-KdzZeNtuy" name="Page-1">
    <mxGraphModel dx="884" dy="523" grid="1" gridSize="10" guides="1" tooltips="1" connect="1" arrows="1" fold="1" page="1" pageScale="1" pageWidth="827" pageHeight="1169" math="0" shadow="0">
      <root>
        <mxCell id="WIyWlLk6GJQsqaUBKTNV-0" />
        <mxCell id="WIyWlLk6GJQsqaUBKTNV-1" parent="WIyWlLk6GJQsqaUBKTNV-0" />
        <mxCell id="Ft4RLDnBPVxdNnVplKd0-4" style="edgeStyle=orthogonalEdgeStyle;rounded=0;orthogonalLoop=1;jettySize=auto;html=1;exitX=1;exitY=0.25;exitDx=0;exitDy=0;entryX=0;entryY=0.5;entryDx=0;entryDy=0;curved=1;" edge="1" parent="WIyWlLk6GJQsqaUBKTNV-1" source="Ft4RLDnBPVxdNnVplKd0-0" target="Ft4RLDnBPVxdNnVplKd0-1">
          <mxGeometry relative="1" as="geometry" />
        </mxCell>
        <mxCell id="Ft4RLDnBPVxdNnVplKd0-7" value="&lt;div&gt;/USER&lt;/div&gt;" style="edgeLabel;html=1;align=center;verticalAlign=middle;resizable=0;points=[];" vertex="1" connectable="0" parent="Ft4RLDnBPVxdNnVplKd0-4">
          <mxGeometry x="0.4795" y="-3" relative="1" as="geometry">
            <mxPoint as="offset" />
          </mxGeometry>
        </mxCell>
        <mxCell id="Ft4RLDnBPVxdNnVplKd0-5" style="edgeStyle=orthogonalEdgeStyle;rounded=0;orthogonalLoop=1;jettySize=auto;html=1;exitX=1;exitY=0.5;exitDx=0;exitDy=0;entryX=0;entryY=0.5;entryDx=0;entryDy=0;curved=1;" edge="1" parent="WIyWlLk6GJQsqaUBKTNV-1" source="Ft4RLDnBPVxdNnVplKd0-0" target="Ft4RLDnBPVxdNnVplKd0-2">
          <mxGeometry relative="1" as="geometry" />
        </mxCell>
        <mxCell id="Ft4RLDnBPVxdNnVplKd0-8" value="&lt;div&gt;/MEMBER&lt;/div&gt;" style="edgeLabel;html=1;align=center;verticalAlign=middle;resizable=0;points=[];" vertex="1" connectable="0" parent="Ft4RLDnBPVxdNnVplKd0-5">
          <mxGeometry x="0.22" y="-2" relative="1" as="geometry">
            <mxPoint as="offset" />
          </mxGeometry>
        </mxCell>
        <mxCell id="Ft4RLDnBPVxdNnVplKd0-6" style="edgeStyle=orthogonalEdgeStyle;rounded=0;orthogonalLoop=1;jettySize=auto;html=1;exitX=1;exitY=0.75;exitDx=0;exitDy=0;entryX=0;entryY=0.5;entryDx=0;entryDy=0;elbow=vertical;curved=1;" edge="1" parent="WIyWlLk6GJQsqaUBKTNV-1" source="Ft4RLDnBPVxdNnVplKd0-0" target="Ft4RLDnBPVxdNnVplKd0-3">
          <mxGeometry relative="1" as="geometry" />
        </mxCell>
        <mxCell id="Ft4RLDnBPVxdNnVplKd0-9" value="/LOAN" style="edgeLabel;html=1;align=center;verticalAlign=middle;resizable=0;points=[];" vertex="1" connectable="0" parent="Ft4RLDnBPVxdNnVplKd0-6">
          <mxGeometry x="0.5116" y="-1" relative="1" as="geometry">
            <mxPoint as="offset" />
          </mxGeometry>
        </mxCell>
        <mxCell id="Ft4RLDnBPVxdNnVplKd0-0" value="API GATEWAY" style="shape=hexagon;perimeter=hexagonPerimeter2;whiteSpace=wrap;html=1;fixedSize=1;" vertex="1" parent="WIyWlLk6GJQsqaUBKTNV-1">
          <mxGeometry x="260" y="190" width="140" height="80" as="geometry" />
        </mxCell>
        <mxCell id="Ft4RLDnBPVxdNnVplKd0-1" value="user_services" style="rounded=1;whiteSpace=wrap;html=1;" vertex="1" parent="WIyWlLk6GJQsqaUBKTNV-1">
          <mxGeometry x="600" y="80" width="120" height="60" as="geometry" />
        </mxCell>
        <mxCell id="Ft4RLDnBPVxdNnVplKd0-2" value="member_services" style="rounded=1;whiteSpace=wrap;html=1;" vertex="1" parent="WIyWlLk6GJQsqaUBKTNV-1">
          <mxGeometry x="600" y="200" width="120" height="60" as="geometry" />
        </mxCell>
        <mxCell id="Ft4RLDnBPVxdNnVplKd0-3" value="&lt;div&gt;loan_services&lt;/div&gt;" style="rounded=1;whiteSpace=wrap;html=1;" vertex="1" parent="WIyWlLk6GJQsqaUBKTNV-1">
          <mxGeometry x="600" y="430" width="120" height="60" as="geometry" />
        </mxCell>
        <mxCell id="Ft4RLDnBPVxdNnVplKd0-12" style="edgeStyle=orthogonalEdgeStyle;rounded=0;orthogonalLoop=1;jettySize=auto;html=1;exitX=1;exitY=0.5;exitDx=0;exitDy=0;entryX=0;entryY=0.5;entryDx=0;entryDy=0;" edge="1" parent="WIyWlLk6GJQsqaUBKTNV-1" source="Ft4RLDnBPVxdNnVplKd0-10" target="Ft4RLDnBPVxdNnVplKd0-0">
          <mxGeometry relative="1" as="geometry" />
        </mxCell>
        <mxCell id="Ft4RLDnBPVxdNnVplKd0-10" value="MOBILE UI" style="whiteSpace=wrap;html=1;aspect=fixed;" vertex="1" parent="WIyWlLk6GJQsqaUBKTNV-1">
          <mxGeometry x="80" y="120" width="70" height="70" as="geometry" />
        </mxCell>
        <mxCell id="Ft4RLDnBPVxdNnVplKd0-13" style="edgeStyle=orthogonalEdgeStyle;rounded=0;orthogonalLoop=1;jettySize=auto;html=1;exitX=1;exitY=0.5;exitDx=0;exitDy=0;" edge="1" parent="WIyWlLk6GJQsqaUBKTNV-1" source="Ft4RLDnBPVxdNnVplKd0-11">
          <mxGeometry relative="1" as="geometry">
            <mxPoint x="260" y="230" as="targetPoint" />
          </mxGeometry>
        </mxCell>
        <mxCell id="Ft4RLDnBPVxdNnVplKd0-11" value="WEB UI" style="whiteSpace=wrap;html=1;aspect=fixed;" vertex="1" parent="WIyWlLk6GJQsqaUBKTNV-1">
          <mxGeometry x="80" y="220" width="70" height="70" as="geometry" />
        </mxCell>
        <mxCell id="Ft4RLDnBPVxdNnVplKd0-14" value="&lt;div&gt;login/&lt;/div&gt;&lt;div&gt;logout&lt;/div&gt;" style="rounded=1;whiteSpace=wrap;html=1;" vertex="1" parent="WIyWlLk6GJQsqaUBKTNV-1">
          <mxGeometry x="827" y="10" width="120" height="60" as="geometry" />
        </mxCell>
        <mxCell id="Ft4RLDnBPVxdNnVplKd0-15" value="member_contribution" style="rounded=1;whiteSpace=wrap;html=1;" vertex="1" parent="WIyWlLk6GJQsqaUBKTNV-1">
          <mxGeometry x="827" y="180" width="120" height="60" as="geometry" />
        </mxCell>
        <mxCell id="Ft4RLDnBPVxdNnVplKd0-16" value="osg_counterpart" style="rounded=1;whiteSpace=wrap;html=1;" vertex="1" parent="WIyWlLk6GJQsqaUBKTNV-1">
          <mxGeometry x="827" y="260" width="120" height="60" as="geometry" />
        </mxCell>
        <mxCell id="Ft4RLDnBPVxdNnVplKd0-17" value="password-reset" style="rounded=1;whiteSpace=wrap;html=1;" vertex="1" parent="WIyWlLk6GJQsqaUBKTNV-1">
          <mxGeometry x="827" y="90" width="120" height="60" as="geometry" />
        </mxCell>
        <mxCell id="Ft4RLDnBPVxdNnVplKd0-18" value="view_current_loans" style="rounded=1;whiteSpace=wrap;html=1;" vertex="1" parent="WIyWlLk6GJQsqaUBKTNV-1">
          <mxGeometry x="827" y="390" width="120" height="60" as="geometry" />
        </mxCell>
        <mxCell id="Ft4RLDnBPVxdNnVplKd0-19" value="apply_loans" style="rounded=1;whiteSpace=wrap;html=1;" vertex="1" parent="WIyWlLk6GJQsqaUBKTNV-1">
          <mxGeometry x="830" y="480" width="120" height="60" as="geometry" />
        </mxCell>
      </root>
    </mxGraphModel>
  </diagram>
</mxfile>
